<svg width="16" height="16" viewBox="0 0 16 16" fill="none" xmlns="http://www.w3.org/2000/svg">
<path d="M12.9133 3.25996L9.00667 1.51996C8.43334 1.26662 7.56667 1.26662 6.99334 1.51996L3.08667 3.25996C2.10001 3.69996 1.95334 4.29996 1.95334 4.61996C1.95334 4.93996 2.10001 5.53996 3.08667 5.97996L6.99334 7.71996C7.28 7.84662 7.64001 7.91329 8.00001 7.91329C8.36001 7.91329 8.72001 7.84662 9.00667 7.71996L12.9133 5.97996C13.9 5.53996 14.0467 4.93996 14.0467 4.61996C14.0467 4.29996 13.9067 3.69996 12.9133 3.25996Z" fill="white"/>
<path d="M7.99999 11.36C7.74666 11.36 7.49333 11.3067 7.25999 11.2067L2.76666 9.20671C2.07999 8.90004 1.54666 8.08004 1.54666 7.32671C1.54666 7.05337 1.76666 6.83337 2.03999 6.83337C2.31333 6.83337 2.53333 7.05337 2.53333 7.32671C2.53333 7.68671 2.83333 8.15337 3.16666 8.30004L7.65999 10.3C7.87333 10.3934 8.11999 10.3934 8.33333 10.3L12.8267 8.30004C13.16 8.15337 13.46 7.69337 13.46 7.32671C13.46 7.05337 13.68 6.83337 13.9533 6.83337C14.2267 6.83337 14.4467 7.05337 14.4467 7.32671C14.4467 8.07337 13.9133 8.90004 13.2267 9.20671L8.73333 11.2067C8.50666 11.3067 8.25333 11.36 7.99999 11.36Z" fill="white"/>
<path d="M7.99999 14.6667C7.74666 14.6667 7.49333 14.6133 7.25999 14.5133L2.76666 12.5133C2.02666 12.1867 1.54666 11.4467 1.54666 10.6333C1.54666 10.36 1.76666 10.14 2.03999 10.14C2.31333 10.14 2.53333 10.36 2.53333 10.6333C2.53333 11.0533 2.77999 11.4333 3.16666 11.6067L7.65999 13.6067C7.87333 13.7 8.11999 13.7 8.33333 13.6067L12.8267 11.6067C13.2067 11.44 13.46 11.0533 13.46 10.6333C13.46 10.36 13.68 10.14 13.9533 10.14C14.2267 10.14 14.4467 10.36 14.4467 10.6333C14.4467 11.4467 13.9667 12.18 13.2267 12.5133L8.73333 14.5133C8.50666 14.6133 8.25333 14.6667 7.99999 14.6667Z" fill="white"/>
</svg>
