<svg width="14" height="14" viewBox="0 0 14 14" fill="none" xmlns="http://www.w3.org/2000/svg">
<path d="M6.99998 0.333374C3.32665 0.333374 0.333313 3.32671 0.333313 7.00004C0.333313 10.6734 3.32665 13.6667 6.99998 13.6667C10.6733 13.6667 13.6666 10.6734 13.6666 7.00004C13.6666 3.32671 10.6733 0.333374 6.99998 0.333374ZM9.70665 8.19337C9.60665 8.29337 9.47998 8.34004 9.35331 8.34004C9.22665 8.34004 9.09998 8.29337 8.99998 8.19337L6.99998 6.19337L4.99998 8.19337C4.80665 8.38671 4.48665 8.38671 4.29331 8.19337C4.09998 8.00004 4.09998 7.68004 4.29331 7.48671L6.64665 5.13337C6.83998 4.94004 7.15998 4.94004 7.35331 5.13337L9.70665 7.48671C9.89998 7.68671 9.89998 8.00004 9.70665 8.19337Z" fill="#20BF6B"/>
</svg>
